<svg width="2503" height="1079" viewBox="0 0 2503 1079" fill="none" xmlns="http://www.w3.org/2000/svg">
<path d="M1470.46 53.7217H1503.79C1543.91 53.7217 1563.97 70.6488 1563.97 104.503C1563.97 113.373 1561.97 121.633 1557.99 129.283C1554 136.933 1548.95 142.752 1542.85 146.739C1536.75 150.646 1530.44 153.087 1523.93 154.063C1517.42 155.04 1505.78 155.61 1489.02 155.772L1480.47 214H1447.27L1470.46 53.7217ZM1500 82.042L1493.04 127.208H1501.96C1509.85 127.208 1516.44 124.848 1521.73 120.128C1527.1 115.408 1529.79 109.63 1529.79 102.794C1529.79 96.9346 1527.59 92.0111 1523.2 88.0234C1518.8 84.0358 1513.39 82.042 1506.96 82.042H1500ZM1650.88 111.461L1643.68 139.293C1640.75 137.91 1637.05 137.218 1632.57 137.218C1618.82 137.218 1610.6 146.414 1607.91 164.806L1600.59 214H1570.68L1586.18 110.729H1616.09L1615.11 118.053C1623.33 111.542 1631.43 108.287 1639.41 108.287C1643.23 108.287 1647.06 109.345 1650.88 111.461ZM1685.55 88.0234C1680.18 88.0234 1675.62 86.0703 1671.88 82.1641C1668.13 78.2578 1666.26 73.6191 1666.26 68.248C1666.26 63.0397 1668.13 58.6045 1671.88 54.9424C1675.7 51.2803 1680.26 49.4492 1685.55 49.4492C1690.84 49.4492 1695.36 51.2803 1699.1 54.9424C1702.84 58.6045 1704.71 63.0397 1704.71 68.248C1704.71 73.8633 1702.88 78.5833 1699.22 82.4082C1695.64 86.1517 1691.25 88.0234 1686.04 88.0234H1685.55ZM1664.55 110.729H1694.46L1678.96 214H1649.29L1664.55 110.729ZM1746.71 110.729L1744.75 121.715C1750.94 117.076 1755.94 113.74 1759.77 111.705C1763.67 109.589 1767.99 108.531 1772.71 108.531C1780.93 108.531 1787.52 111.664 1792.48 117.931C1797.53 124.116 1800.05 132.376 1800.05 142.711C1800.05 146.048 1799.85 148.814 1799.44 151.012L1790.04 214H1760.26L1769.29 154.308C1769.61 152.273 1769.78 149.425 1769.78 145.763C1769.78 136.404 1766.03 131.725 1758.55 131.725C1753.99 131.725 1750 133.963 1746.58 138.438C1743.25 142.833 1741.05 148.611 1739.99 155.772L1731.2 214H1701.05L1716.55 110.729H1746.71ZM1834.96 73.7412H1864.75L1859.5 110.729H1873.17L1868.9 140.514H1855.47L1844.24 214H1814.46L1824.95 140.514H1813.72L1818 110.729H1829.47L1834.96 73.7412ZM1881.72 197.276C1881.72 191.417 1883.42 186.616 1886.84 182.872C1890.26 179.129 1894.57 177.257 1899.78 177.257C1904.75 177.257 1909.02 179.047 1912.6 182.628C1916.18 186.127 1917.97 190.318 1917.97 195.201C1917.97 201.305 1916.22 206.35 1912.72 210.338C1909.3 214.244 1904.99 216.197 1899.78 216.197C1894.9 216.197 1890.67 214.326 1887.09 210.582C1883.51 206.839 1881.72 202.403 1881.72 197.276Z" fill="#FB923C"/>
<path d="M1284.3 174.567C1284.3 207.135 1448.46 207 1417.52 207C1386.58 207 1312.31 134.898 1312.31 102.33C1312.31 69.7622 1025.39 64 1056.33 64C1087.27 64 1284.3 141.999 1284.3 174.567Z" fill="#FB923C"/>
<path d="M0 25L1215.5 1079L2502.48 25V630.622H0V25Z" fill="#FB923C"/>
<path d="M624.103 285.571H756.048V330.922H674.274V378.772H756.048V424.479H674.631V520H624.103V285.571ZM793.185 309.675C793.185 301.938 795.982 295.272 801.576 289.678C807.171 284.084 813.896 281.286 821.752 281.286C829.608 281.286 836.333 284.084 841.927 289.678C847.522 295.272 850.319 301.938 850.319 309.675C850.319 317.531 847.522 324.256 841.927 329.85C836.333 335.445 829.608 338.242 821.752 338.242C813.896 338.242 807.171 335.445 801.576 329.85C795.982 324.256 793.185 317.531 793.185 309.675ZM799.077 366.452H844.784V520H799.077V366.452ZM894.062 281.643H939.77V520H894.062V281.643ZM1129.92 454.117H1020.47C1021.07 463.997 1024.28 472.031 1030.11 478.221C1036.06 484.41 1042.97 487.505 1050.82 487.505C1064.87 487.505 1075.88 481.137 1083.85 468.401L1125.81 482.327C1110.22 509.585 1086 523.214 1053.15 523.214C1028.98 523.214 1009.76 515.893 995.475 501.253C981.192 486.612 974.05 466.913 974.05 442.155C974.05 419.896 981.549 401.209 996.547 386.092C1011.66 370.975 1030.23 363.417 1052.25 363.417C1074.39 363.417 1092.84 371.392 1107.6 387.342C1122.48 403.173 1129.92 422.991 1129.92 446.797V454.117ZM1020.83 423.408H1082.61C1078.32 404.244 1068.5 394.662 1053.15 394.662C1044.34 394.662 1037.02 397.162 1031.18 402.161C1025.47 407.16 1022.02 414.242 1020.83 423.408ZM1162.24 281.286H1207.94V387.342C1221.51 371.392 1236.99 363.417 1254.36 363.417C1272.7 363.417 1288.53 371.332 1301.86 387.163C1315.31 402.994 1322.03 422.039 1322.03 444.297C1322.03 465.365 1315.43 483.756 1302.21 499.467C1289 515.06 1273.65 522.857 1256.15 522.857C1247.34 522.857 1239.19 520.655 1231.69 516.251C1224.31 511.846 1216.28 504.824 1207.59 495.182V520H1162.24V281.286ZM1240.8 409.124C1231.75 409.124 1224.19 412.397 1218.12 418.944C1212.05 425.372 1209.01 434.061 1209.01 445.011C1209.01 455.486 1212.17 464.175 1218.48 471.079C1224.9 477.864 1232.94 481.256 1242.58 481.256C1251.39 481.256 1258.71 477.923 1264.54 471.257C1270.37 464.473 1273.29 455.962 1273.29 445.726C1273.29 435.727 1270.08 427.157 1263.65 420.015C1257.34 412.754 1249.72 409.124 1240.8 409.124ZM1358.63 281.643H1404.34V520H1358.63V281.643ZM1553.43 520V493.754H1552.71C1545.57 503.991 1538.37 511.43 1531.11 516.072C1523.85 520.595 1514.86 522.857 1504.15 522.857C1486.17 522.857 1470.88 515.12 1458.26 499.646C1445.64 484.172 1439.34 465.365 1439.34 443.226C1439.34 421.325 1446.06 402.577 1459.51 386.985C1472.96 371.273 1488.91 363.417 1507.36 363.417C1516.17 363.417 1524.09 365.381 1531.11 369.309C1538.13 373.237 1545.57 379.486 1553.43 388.056V366.809H1599.13V520H1553.43ZM1519.86 409.124C1510.81 409.124 1503.26 412.754 1497.18 420.015C1491.11 427.157 1488.08 436.203 1488.08 447.154C1488.08 457.39 1490.94 465.663 1496.65 471.972C1502.48 478.161 1510.1 481.256 1519.5 481.256C1528.55 481.256 1536.29 477.685 1542.71 470.543C1549.14 463.282 1552.35 454.534 1552.35 444.297C1552.35 434.775 1549.14 426.562 1542.71 419.658C1536.29 412.635 1528.67 409.124 1519.86 409.124ZM1757.68 388.056L1726.61 406.982C1717.69 397.935 1709.35 393.412 1701.62 393.412C1697.81 393.412 1694.54 394.483 1691.8 396.626C1689.06 398.768 1687.69 401.387 1687.69 404.482C1687.69 409.481 1689.24 413.112 1692.33 415.373C1695.55 417.635 1704 421.146 1717.69 425.907C1731.38 430.549 1742.15 436.56 1750 443.94C1757.98 451.32 1761.97 461.557 1761.97 474.65C1761.97 487.862 1756.01 499.229 1744.11 508.752C1732.21 518.155 1717.92 522.857 1701.26 522.857C1689.95 522.857 1678.65 519.702 1667.34 513.394C1656.15 507.085 1646.63 497.444 1638.77 484.47L1675.73 467.687C1684.06 482.089 1692.69 489.29 1701.62 489.29C1705.66 489.29 1709.3 487.981 1712.51 485.362C1715.72 482.744 1717.33 479.768 1717.33 476.435C1717.33 472.15 1715.48 468.936 1711.79 466.794C1708.1 464.532 1705.37 463.401 1703.58 463.401C1702.87 462.568 1698.58 460.902 1690.73 458.402C1660.02 448.404 1644.66 432.156 1644.66 409.66C1644.66 396.09 1650.14 385.021 1661.09 376.45C1672.16 367.761 1686.56 363.417 1704.3 363.417C1723.94 363.417 1741.73 371.63 1757.68 388.056ZM1800.71 313.781H1846.42V366.452H1868.38V408.41H1846.42V520H1800.71V408.41H1783.21V366.452H1800.71V313.781Z" fill="#FB923C"/>
<path d="M1251 539.5V548M1251 548L1254 545M1251 548L1248 545M1247 535.036C1247.75 535.144 1248.44 535.491 1248.97 536.026M1256.5 542C1258.02 542 1259 540.769 1259 539.25C1259 538.649 1258.8 538.064 1258.44 537.585C1258.07 537.107 1257.56 536.761 1256.98 536.6C1256.89 535.478 1256.43 534.42 1255.66 533.595C1254.9 532.77 1253.88 532.228 1252.77 532.055C1251.65 531.883 1250.52 532.09 1249.54 532.644C1248.56 533.198 1247.79 534.066 1247.37 535.108C1246.48 534.86 1245.52 534.978 1244.71 535.435C1243.9 535.892 1243.31 536.651 1243.06 537.546C1242.81 538.441 1242.93 539.397 1243.39 540.205C1243.85 541.013 1244.61 541.606 1245.5 541.854" stroke="black" stroke-width="2" stroke-linecap="round" stroke-linejoin="round"/>
</svg>
